<svg width="30" height="32" viewBox="0 0 30 32" fill="none" xmlns="http://www.w3.org/2000/svg">
<path d="M24 25.3787C22.335 25.3787 21 26.7904 21 28.551C21 29.3924 21.3161 30.1993 21.8787 30.7942C22.4413 31.3891 23.2044 31.7234 24 31.7234C24.7956 31.7234 25.5587 31.3891 26.1213 30.7942C26.6839 30.1993 27 29.3924 27 28.551C27 27.7097 26.6839 26.9028 26.1213 26.3078C25.5587 25.7129 24.7956 25.3787 24 25.3787ZM0 0V3.17234H3L8.4 15.2114L6.36 19.0975C6.135 19.5416 6 20.065 6 20.6202C6 21.4615 6.31607 22.2684 6.87868 22.8634C7.44129 23.4583 8.20435 23.7925 9 23.7925H27V20.6202H9.63C9.53054 20.6202 9.43516 20.5784 9.36483 20.504C9.29451 20.4297 9.255 20.3288 9.255 20.2236C9.255 20.1443 9.27 20.0809 9.3 20.0333L10.65 17.4479H21.825C22.95 17.4479 23.94 16.7817 24.45 15.8141L29.82 5.55159C29.925 5.2978 30 5.02815 30 4.7585C30 4.33783 29.842 3.93438 29.5607 3.63691C29.2794 3.33945 28.8978 3.17234 28.5 3.17234H6.315L4.905 0M9 25.3787C7.335 25.3787 6 26.7904 6 28.551C6 29.3924 6.31607 30.1993 6.87868 30.7942C7.44129 31.3891 8.20435 31.7234 9 31.7234C9.79565 31.7234 10.5587 31.3891 11.1213 30.7942C11.6839 30.1993 12 29.3924 12 28.551C12 27.7097 11.6839 26.9028 11.1213 26.3078C10.5587 25.7129 9.79565 25.3787 9 25.3787Z" fill="#0F1035"/>
</svg>
