<svg width="162" height="160" viewBox="0 0 162 160" fill="none" xmlns="http://www.w3.org/2000/svg">
<path d="M77.999 132.003C107.822 132.003 131.999 107.826 131.999 78.0029C131.999 48.1796 107.822 24.0029 77.999 24.0029C48.1756 24.0029 23.999 48.1796 23.999 78.0029C23.999 107.826 48.1756 132.003 77.999 132.003Z" fill="#8B94B1"/>
<mask id="mask0_274_290" style="mask-type:alpha" maskUnits="userSpaceOnUse" x="23" y="24" width="109" height="109">
<path d="M77.999 132.003C107.822 132.003 131.999 107.826 131.999 78.0029C131.999 48.1796 107.822 24.0029 77.999 24.0029C48.1756 24.0029 23.999 48.1796 23.999 78.0029C23.999 107.826 48.1756 132.003 77.999 132.003Z" fill="#D9D9D9"/>
</mask>
<g mask="url(#mask0_274_290)">
<path fill-rule="evenodd" clip-rule="evenodd" d="M72.7942 29.8579C72.7942 33.9813 71.2598 37.7464 68.7308 40.6133C66.7143 42.8992 66.2896 47.6296 66.2896 50.6778C66.2896 54.6303 63.0854 57.8345 59.1329 57.8345C56.2687 57.8345 52.0875 58.4257 49.8598 60.226C47.6819 61.9861 44.9097 63.0402 41.8913 63.0402C36.7376 63.0402 32.3016 59.9672 30.3158 55.5536C29.6949 54.1737 28.8105 52.9051 27.6669 51.9142C24.225 48.9319 22.0479 44.5287 22.0479 39.617C22.0479 30.6341 29.3301 23.3519 38.313 23.3519C40.1691 23.3519 41.9562 22.392 42.9857 20.8477C45.9012 16.4741 50.8787 13.5928 56.5291 13.5928C65.5121 13.5928 72.7942 20.8749 72.7942 29.8579Z" fill="#F6F7F9"/>
<path fill-rule="evenodd" clip-rule="evenodd" d="M135.202 52.7659C134.773 49.4831 134.88 46.0372 135.522 42.7892C135.867 41.039 135.938 39.2037 135.694 37.3369C134.487 28.105 126.025 21.5994 116.793 22.8062C107.562 24.0129 101.056 32.4751 102.263 41.707C102.443 43.0874 102.786 44.4069 103.269 45.6488C103.68 46.7048 103.68 47.8844 103.271 48.9412C103.187 49.1582 103.108 49.3772 103.033 49.5982C102.48 51.2277 100.793 52.3294 99.0869 52.5524C94.4491 53.1586 91.181 57.4097 91.7872 62.0475C92.3934 66.6852 96.6445 69.9534 101.282 69.3472C104.636 68.9088 108.789 68.6056 111.865 70.0122C112.142 70.139 112.423 70.2583 112.708 70.3699C114.978 71.2602 116.94 72.9229 118.445 74.8423C120.982 78.0787 125.113 79.9309 129.486 79.3593C136.078 78.4977 140.722 72.4559 139.861 65.8646C139.653 64.2765 139.145 62.8014 138.401 61.4891C136.884 58.8143 135.601 55.815 135.202 52.7659Z" fill="#F6F7F9"/>
<path fill-rule="evenodd" clip-rule="evenodd" d="M91.4095 102.52C91.4095 100.753 92.5556 98.9846 94.0586 98.0539C96.3736 96.6204 97.9158 94.0576 97.9158 91.1345C97.9158 86.6431 94.2747 83.002 89.7832 83.002C87.179 83.002 84.8606 84.2261 83.3722 86.1303C82.153 87.6901 79.4005 88.8581 77.4208 88.8581C75.5661 88.8581 73.588 88.6433 71.7633 88.311C71.3827 88.2417 70.9906 88.2055 70.59 88.2055C66.9968 88.2055 64.084 91.1183 64.084 94.7115C64.084 97.3932 65.7065 99.696 68.0235 100.691C68.756 101.006 69.2891 101.723 69.2891 102.52C69.2891 108.629 74.2409 113.581 80.3493 113.581C86.4577 113.581 91.4095 108.629 91.4095 102.52Z" fill="#F6F7F9"/>
<path fill-rule="evenodd" clip-rule="evenodd" d="M38.4433 130.351C40.5334 128.538 43.7991 128.08 46.4405 128.903C50.5118 130.172 55.1266 129.367 58.5849 126.368C63.8981 121.76 64.4698 113.717 59.8619 108.404C57.1904 105.324 53.3644 103.837 49.5851 104.029C46.4892 104.187 42.2849 102.13 40.2538 99.7874C38.3497 97.5918 36.5721 95.0301 35.0903 92.5299C34.7827 92.0108 34.4245 91.5119 34.0152 91.04C30.3288 86.7894 23.8947 86.3321 19.6442 90.0184C16.471 92.7704 15.4118 97.0537 16.6125 100.817C16.9911 102.004 16.6904 103.367 15.7493 104.183C8.52338 110.45 7.74586 121.388 14.0127 128.614C20.2794 135.84 31.2174 136.617 38.4433 130.351Z" fill="#F6F7F9"/>
<path fill-rule="evenodd" clip-rule="evenodd" d="M132.188 115.493C131.118 113.848 130.833 111.642 131.618 109.843C134.348 103.586 132.155 96.5917 126.721 94.2213C121.286 91.8509 114.668 95.0022 111.939 101.259C110.915 103.606 110.584 106.056 110.856 108.328C111.025 109.739 109.673 111.353 108.298 111.715C108.137 111.758 107.961 111.786 107.793 111.789C105.457 111.827 102.968 112.381 100.553 113.501C93.3828 116.828 89.5925 123.885 92.0877 129.263C94.5829 134.641 102.418 136.304 109.589 132.977C112.864 131.458 117.114 131.613 120.647 132.358C122.415 132.73 124.299 132.674 126.148 132.109C131.99 130.324 135.28 124.142 133.496 118.3C133.185 117.282 132.741 116.342 132.188 115.493Z" fill="#F6F7F9"/>
</g>
<path d="M122.566 37.2607L118.468 39.4612L131.235 51.0879L122.402 55.8292L118.963 53.4308C118.371 53.0184 117.599 52.9736 116.961 53.3158L114.004 54.9037L119.092 60.8678L121.254 68.4055L124.212 66.8158C124.849 66.4755 125.239 65.8048 125.222 65.0835L125.122 60.8921L133.953 56.1502L136.593 73.2147L140.691 71.0142C141.29 70.6944 141.673 70.0796 141.699 69.4013L141.984 62.0877L144.436 60.7711C145.04 60.4466 145.267 59.6937 144.942 59.0894C144.618 58.485 143.865 58.2582 143.261 58.5827L142.096 59.2081L142.391 51.618L149.985 47.5418C151.384 46.7908 151.909 45.0484 151.158 43.6497C150.406 42.2529 148.666 41.7285 147.268 42.4777L139.673 46.5557L132.863 42.4157L134.196 41.7004C134.8 41.376 135.027 40.623 134.702 40.0187C134.378 39.4144 133.625 39.1875 133.02 39.512L130.401 40.9186L124.468 37.3114C123.888 36.9586 123.163 36.9403 122.566 37.2607Z" fill="#38435A"/>
<path fill-rule="evenodd" clip-rule="evenodd" d="M24.504 66.3405C24.8248 66.7771 24.7309 67.3911 24.2943 67.7119C23.7625 68.1026 23.2464 68.4904 22.7461 68.8749C22.3166 69.205 21.7006 69.1245 21.3705 68.6949C21.0403 68.2653 21.1208 67.6494 21.5504 67.3192C22.0624 66.9257 22.5899 66.5295 23.1326 66.1308C23.5692 65.81 24.1832 65.9039 24.504 66.3405ZM19.0986 70.5577C19.4586 70.9627 19.4221 71.5828 19.0171 71.9427C18.5214 72.3833 18.0507 72.8178 17.6058 73.2457C17.2152 73.6212 16.5942 73.609 16.2186 73.2185C15.8431 72.8279 15.8553 72.2069 16.2458 71.8314C16.7106 71.3844 17.2001 70.9326 17.7136 70.4762C18.1186 70.1163 18.7387 70.1528 19.0986 70.5577ZM14.2326 75.3816C14.6641 75.7093 14.7482 76.3248 14.4205 76.7562C14.0198 77.284 13.6727 77.7932 13.379 78.2828C13.1003 78.7474 12.4977 78.8981 12.0331 78.6194C11.5684 78.3407 11.4177 77.7381 11.6964 77.2735C12.0317 76.7145 12.4201 76.1461 12.858 75.5696C13.1857 75.1381 13.8011 75.0539 14.2326 75.3816ZM11.1014 81.4332C11.639 81.3664 12.1291 81.7481 12.1959 82.2858C12.2274 82.5393 12.2865 82.7808 12.3731 83.0115C12.4622 83.2492 12.5807 83.4763 12.7298 83.6939C13.0361 84.1408 12.9221 84.7514 12.4752 85.0577C12.0283 85.364 11.4177 85.25 11.1114 84.8031C10.8753 84.4586 10.6823 84.0909 10.5359 83.7006C10.3939 83.3217 10.2988 82.9299 10.2488 82.5277C10.182 81.9901 10.5637 81.5 11.1014 81.4332ZM15.1603 86.6046C15.3213 86.0873 15.8713 85.7984 16.3886 85.9594C16.9556 86.1359 17.5781 86.2907 18.2556 86.423C18.7874 86.5268 19.1343 87.0421 19.0305 87.5739C18.9267 88.1056 18.4114 88.4526 17.8796 88.3487C17.1423 88.2048 16.4497 88.0334 15.8055 87.8329C15.2882 87.6718 14.9993 87.1219 15.1603 86.6046ZM22.0922 87.8853C22.1138 87.3439 22.5702 86.9225 23.1116 86.9441C23.7475 86.9694 24.4077 86.9824 25.0913 86.9832C25.6331 86.9839 26.0719 87.4236 26.0712 87.9654C26.0706 88.5072 25.6309 88.9459 25.0891 88.9453C24.382 88.9445 23.6965 88.931 23.0335 88.9046C22.4921 88.883 22.0707 88.4266 22.0922 87.8853ZM29.1629 87.8477C29.1254 87.3072 29.5332 86.8386 30.0737 86.8011C30.7209 86.7563 31.3825 86.7031 32.058 86.6417C32.5976 86.5927 33.0747 86.9904 33.1237 87.53C33.1728 88.0696 32.7751 88.5467 32.2355 88.5958C31.5467 88.6583 30.8712 88.7126 30.2095 88.7585C29.669 88.796 29.2004 88.3882 29.1629 87.8477ZM36.185 87.1795C36.1125 86.6425 36.4891 86.1485 37.026 86.0761C37.6764 85.9883 38.3367 85.8943 39.0065 85.794C39.5423 85.7138 40.0417 86.0832 40.122 86.619C40.2022 87.1548 39.8328 87.6543 39.297 87.7345C38.6181 87.8361 37.9484 87.9315 37.2884 88.0205C36.7514 88.093 36.2574 87.7164 36.185 87.1795ZM43.1695 86.1111C43.0725 85.5781 43.426 85.0673 43.9591 84.9703C44.6103 84.8518 45.2689 84.7282 45.9345 84.5995C46.4664 84.4966 46.981 84.8445 47.0839 85.3765C47.1868 85.9084 46.8389 86.423 46.3069 86.5259C45.6344 86.6559 44.9688 86.7809 44.3103 86.9007C43.7773 86.9977 43.2665 86.6442 43.1695 86.1111ZM50.098 84.7535C49.982 84.2242 50.3171 83.7011 50.8464 83.5852C51.4977 83.4425 52.1546 83.2954 52.8169 83.1441C53.3451 83.0233 53.8712 83.3537 53.9919 83.8818C54.1126 84.41 53.7823 84.9361 53.2541 85.0568C52.5861 85.2095 51.9234 85.3578 51.2663 85.5018C50.737 85.6178 50.214 85.2827 50.098 84.7535ZM56.982 83.1649C56.8504 82.6393 57.1697 82.1065 57.6953 81.9749C58.3428 81.8128 58.9946 81.6469 59.6507 81.4772C60.1752 81.3415 60.7104 81.6568 60.8461 82.1813C60.9818 82.7059 60.6665 83.2411 60.142 83.3768C59.4811 83.5477 58.8244 83.7149 58.1719 83.8782C57.6464 84.0098 57.1136 83.6905 56.982 83.1649ZM63.8186 81.3831C63.6735 80.8611 63.979 80.3202 64.501 80.1751C65.1454 79.9959 65.7933 79.8133 66.4446 79.6274C66.9656 79.4787 67.5085 79.7805 67.6572 80.3015C67.806 80.8225 67.5042 81.3654 66.9832 81.5141C66.3277 81.7013 65.6754 81.8851 65.0266 82.0655C64.5046 82.2106 63.9638 81.9051 63.8186 81.3831ZM117.119 61.7216C117.347 62.2132 117.133 62.7964 116.641 63.0244C116.108 63.2718 115.571 63.519 115.03 63.7658C114.537 63.9909 113.955 63.7739 113.73 63.281C113.505 62.7882 113.722 62.2062 114.215 61.9811C114.752 61.7358 115.286 61.4902 115.816 61.2443C116.307 61.0164 116.891 61.2301 117.119 61.7216ZM70.6092 79.4321C70.4519 78.9136 70.7448 78.3658 71.2633 78.2085C71.9041 78.0142 72.5476 77.8168 73.1938 77.6163C73.7113 77.4558 74.2609 77.7451 74.4215 78.2626C74.582 78.7801 74.2926 79.3298 73.7751 79.4903C73.125 79.692 72.4775 79.8906 71.8327 80.0861C71.3142 80.2434 70.7664 79.9506 70.6092 79.4321ZM111.487 64.2864C111.706 64.7824 111.481 65.3613 110.985 65.5795C110.446 65.8167 109.904 66.0533 109.36 66.2895C108.862 66.5051 108.285 66.2769 108.069 65.7798C107.854 65.2827 108.082 64.705 108.579 64.4894C109.12 64.2546 109.659 64.0194 110.194 63.7837C110.69 63.5654 111.269 63.7905 111.487 64.2864ZM77.3555 77.3276C77.1871 76.8127 77.468 76.2587 77.983 76.0903C78.618 75.8827 79.2551 75.6723 79.8942 75.4591C80.4082 75.2876 80.9638 75.5653 81.1352 76.0793C81.3067 76.5933 81.029 77.1489 80.515 77.3203C79.8722 77.5347 79.2315 77.7464 78.5928 77.9552C78.0778 78.1236 77.5238 77.8426 77.3555 77.3276ZM105.808 66.7428C106.017 67.2427 105.781 67.8174 105.281 68.0264C104.738 68.2536 104.192 68.4802 103.644 68.7062C103.143 68.9127 102.569 68.674 102.363 68.1731C102.156 67.6722 102.395 67.0987 102.896 66.8922C103.441 66.6675 103.984 66.4422 104.524 66.2163C105.024 66.0072 105.599 66.243 105.808 66.7428ZM84.0582 75.0806C83.8793 74.5691 84.149 74.0095 84.6604 73.8307C85.2895 73.6107 85.9203 73.3881 86.5525 73.163C87.063 72.9812 87.6241 73.2477 87.8058 73.7581C87.9875 74.2685 87.7211 74.8296 87.2107 75.0114C86.5749 75.2377 85.9407 75.4615 85.3081 75.6828C84.7967 75.8616 84.2371 75.592 84.0582 75.0806ZM100.084 69.0955C100.284 69.599 100.038 70.1694 99.5344 70.3696C98.987 70.5872 98.4373 70.8042 97.8855 71.0204C97.3811 71.2181 96.8119 70.9694 96.6142 70.4649C96.4165 69.9604 96.6652 69.3912 97.1697 69.1936C97.7185 68.9785 98.2651 68.7628 98.8095 68.5463C99.313 68.3462 99.8834 68.592 100.084 69.0955ZM90.7056 72.7025C90.5167 72.1947 90.7753 71.6299 91.2831 71.4411C91.5986 71.3238 91.9143 71.2058 92.2304 71.0873C92.5059 70.9839 92.781 70.8804 93.0557 70.7766C93.5625 70.5851 94.1286 70.8408 94.3201 71.3476C94.5116 71.8545 94.256 72.4206 93.7491 72.6121C93.473 72.7164 93.1965 72.8205 92.9194 72.9244C92.6017 73.0436 92.2842 73.1621 91.9671 73.2801C91.4592 73.4689 90.8945 73.2104 90.7056 72.7025Z" fill="#38435A"/>
<path d="M17.0376 29.1198C17.0376 31.0891 15.4412 32.6855 13.4719 32.6855C11.5027 32.6855 9.90625 31.0891 9.90625 29.1198C9.90625 27.1506 11.5027 25.5542 13.4719 25.5542C15.4412 25.5542 17.0376 27.1506 17.0376 29.1198Z" fill="#F6F7F9"/>
<path d="M111.935 151.649C111.935 152.462 111.276 153.121 110.463 153.121C109.651 153.121 108.992 152.462 108.992 151.649C108.992 150.837 109.651 150.178 110.463 150.178C111.276 150.178 111.935 150.837 111.935 151.649Z" fill="#F6F7F9"/>
<path d="M146.535 107.143C146.535 109.113 144.938 110.709 142.969 110.709C141 110.709 139.403 109.113 139.403 107.143C139.403 105.174 141 103.578 142.969 103.578C144.938 103.578 146.535 105.174 146.535 107.143Z" fill="#F6F7F9"/>
<path fill-rule="evenodd" clip-rule="evenodd" d="M141.365 125.439C141.365 124.863 141.832 124.396 142.408 124.396H149.707C150.283 124.396 150.75 124.863 150.75 125.439C150.75 126.015 150.283 126.482 149.707 126.482H142.408C141.832 126.482 141.365 126.015 141.365 125.439Z" fill="#F6F7F9"/>
<path fill-rule="evenodd" clip-rule="evenodd" d="M146.057 130.13C145.481 130.13 145.014 129.664 145.014 129.088V121.788C145.014 121.213 145.481 120.746 146.057 120.746C146.633 120.746 147.1 121.213 147.1 121.788V129.088C147.1 129.664 146.633 130.13 146.057 130.13Z" fill="#F6F7F9"/>
<path fill-rule="evenodd" clip-rule="evenodd" d="M5.00098 111.213C5.00098 110.637 5.46784 110.17 6.04373 110.17H13.343C13.9189 110.17 14.3858 110.637 14.3858 111.213C14.3858 111.789 13.9189 112.256 13.343 112.256H6.04373C5.46784 112.256 5.00098 111.789 5.00098 111.213Z" fill="#F6F7F9"/>
<path fill-rule="evenodd" clip-rule="evenodd" d="M9.69314 115.905C9.11724 115.905 8.65039 115.438 8.65039 114.863V107.563C8.65039 106.987 9.11724 106.521 9.69314 106.521C10.269 106.521 10.7359 106.987 10.7359 107.563V114.863C10.7359 115.438 10.269 115.905 9.69314 115.905Z" fill="#F6F7F9"/>
<path fill-rule="evenodd" clip-rule="evenodd" d="M129.592 8.69534C129.592 8.11944 130.059 7.65259 130.635 7.65259H137.934C138.51 7.65259 138.977 8.11944 138.977 8.69534C138.977 9.27123 138.51 9.73809 137.934 9.73809H130.635C130.059 9.73809 129.592 9.27123 129.592 8.69534Z" fill="#F6F7F9"/>
<path fill-rule="evenodd" clip-rule="evenodd" d="M134.285 13.3877C133.709 13.3877 133.242 12.9208 133.242 12.3449V5.04568C133.242 4.46979 133.709 4.00293 134.285 4.00293C134.86 4.00293 135.327 4.46979 135.327 5.04568V12.3449C135.327 12.9208 134.86 13.3877 134.285 13.3877Z" fill="#F6F7F9"/>
<g style="mix-blend-mode:color">
<path d="M133.243 12.3449C133.243 12.9208 133.71 13.3877 134.286 13.3877C134.861 13.3877 135.328 12.9208 135.328 12.3449V9.73806H137.935C138.511 9.73806 138.978 9.2712 138.978 8.69531C138.978 8.11941 138.511 7.65256 137.935 7.65256H135.328V5.04568C135.328 4.46979 134.861 4.00293 134.286 4.00293C133.71 4.00293 133.243 4.46979 133.243 5.04568V7.65256H130.636C130.06 7.65256 129.593 8.11941 129.593 8.69531C129.593 9.2712 130.06 9.73806 130.636 9.73806H133.243V12.3449Z" fill="#488BF8"/>
<path d="M132.001 78.0029C132.001 107.826 107.824 132.002 78.0008 132.002C51.9264 132.002 30.1684 113.522 25.1101 88.9454L25.0894 88.9456C24.3823 88.9448 23.6968 88.9313 23.0338 88.9049C22.4924 88.8833 22.071 88.4269 22.0926 87.8855C22.1141 87.3442 22.5705 86.9228 23.1119 86.9443C23.6394 86.9654 24.1835 86.9779 24.7439 86.982C24.2552 84.0617 24.0008 81.062 24.0008 78.0029C24.0008 48.1795 48.1774 24.0029 78.0008 24.0029C99.1047 24.0029 117.381 36.1091 126.264 53.7556L131.234 51.0877L118.467 39.4609L122.565 37.2605C123.162 36.9401 123.887 36.9584 124.467 37.3111L130.4 40.9183L133.019 39.5117C133.624 39.1872 134.377 39.4141 134.701 40.0184C135.026 40.6227 134.799 41.3757 134.195 41.7002L132.862 42.4155L139.672 46.5554L147.267 42.4774C148.665 41.7283 150.405 42.2527 151.157 43.6495C151.908 45.0481 151.383 46.7906 149.984 47.5416L142.39 51.6177L142.095 59.2079L143.26 58.5824C143.864 58.2579 144.617 58.4848 144.941 59.0891C145.266 59.6934 145.039 60.4464 144.435 60.7709L141.983 62.0875L141.698 69.4011C141.672 70.0794 141.289 70.6941 140.69 71.014L136.592 73.2144L133.952 56.15L128.576 59.0369C130.79 64.9376 132.001 71.3289 132.001 78.0029Z" fill="#488BF8"/>
<path d="M24.5047 66.3407C24.8255 66.7773 24.7316 67.3913 24.295 67.7121C23.7632 68.1028 23.2471 68.4906 22.7468 68.875C22.3173 69.2052 21.7014 69.1247 21.3712 68.6951C21.041 68.2655 21.1216 67.6496 21.5511 67.3194C22.0631 66.9259 22.5906 66.5297 23.1333 66.1309C23.5699 65.8101 24.1839 65.904 24.5047 66.3407Z" fill="#488BF8"/>
<path d="M19.0992 70.5581C19.4591 70.9631 19.4226 71.5832 19.0176 71.9431C18.5219 72.3837 18.0513 72.8182 17.6063 73.2461C17.2157 73.6216 16.5947 73.6094 16.2192 73.2189C15.8436 72.8283 15.8558 72.2073 16.2463 71.8317C16.7111 71.3848 17.2007 70.933 17.7142 70.4766C18.1191 70.1166 18.7392 70.1532 19.0992 70.5581Z" fill="#488BF8"/>
<path d="M14.2327 75.3819C14.6642 75.7096 14.7484 76.325 14.4207 76.7565C14.0199 77.2843 13.6728 77.7935 13.3791 78.283C13.1004 78.7477 12.4978 78.8984 12.0332 78.6197C11.5685 78.341 11.4178 77.7384 11.6965 77.2738C12.0318 76.7148 12.4202 76.1464 12.8581 75.5698C13.1858 75.1384 13.8012 75.0542 14.2327 75.3819Z" fill="#488BF8"/>
<path d="M11.1014 81.4336C11.6391 81.3668 12.1291 81.7485 12.1959 82.2862C12.2274 82.5397 12.2865 82.7812 12.3731 83.0119C12.4622 83.2496 12.5807 83.4767 12.7298 83.6943C13.0361 84.1412 12.9222 84.7518 12.4752 85.0581C12.0283 85.3644 11.4177 85.2504 11.1114 84.8035C10.8753 84.459 10.6823 84.0912 10.536 83.7009C10.3939 83.3221 10.2988 82.9303 10.2488 82.5281C10.182 81.9904 10.5637 81.5004 11.1014 81.4336Z" fill="#488BF8"/>
<path d="M15.1608 86.6051C15.3219 86.0878 15.8718 85.7989 16.3891 85.9599C16.9561 86.1364 17.5786 86.2912 18.2561 86.4235C18.7879 86.5273 19.1348 87.0426 19.031 87.5744C18.9272 88.1061 18.4119 88.453 17.8801 88.3492C17.1428 88.2053 16.4502 88.0338 15.806 87.8333C15.2887 87.6723 14.9998 87.1224 15.1608 86.6051Z" fill="#488BF8"/>
<path d="M13.4719 32.6861C15.4412 32.6861 17.0376 31.0897 17.0376 29.1204C17.0376 27.1511 15.4412 25.5547 13.4719 25.5547C11.5027 25.5547 9.90625 27.1511 9.90625 29.1204C9.90625 31.0897 11.5027 32.6861 13.4719 32.6861Z" fill="#488BF8"/>
<path d="M111.934 151.649C111.934 152.462 111.275 153.12 110.462 153.12C109.65 153.12 108.991 152.462 108.991 151.649C108.991 150.836 109.65 150.177 110.462 150.177C111.275 150.177 111.934 150.836 111.934 151.649Z" fill="#488BF8"/>
<path d="M142.968 110.709C144.938 110.709 146.534 109.113 146.534 107.143C146.534 105.174 144.938 103.578 142.968 103.578C140.999 103.578 139.403 105.174 139.403 107.143C139.403 109.113 140.999 110.709 142.968 110.709Z" fill="#488BF8"/>
<path d="M141.365 125.438C141.365 124.862 141.832 124.395 142.408 124.395H145.014V121.788C145.014 121.213 145.481 120.746 146.057 120.746C146.633 120.746 147.1 121.213 147.1 121.788V124.395H149.707C150.283 124.395 150.75 124.862 150.75 125.438C150.75 126.014 150.283 126.481 149.707 126.481H147.1V129.088C147.1 129.664 146.633 130.13 146.057 130.13C145.481 130.13 145.014 129.664 145.014 129.088V126.481H142.408C141.832 126.481 141.365 126.014 141.365 125.438Z" fill="#488BF8"/>
<path d="M5.00098 111.213C5.00098 110.638 5.46784 110.171 6.04373 110.171H8.65046V107.564C8.65046 106.988 9.11731 106.521 9.69321 106.521C10.2691 106.521 10.736 106.988 10.736 107.564V110.171H13.343C13.9189 110.171 14.3858 110.638 14.3858 111.213C14.3858 111.789 13.9189 112.256 13.343 112.256H10.736V114.863C10.736 115.439 10.2691 115.906 9.69321 115.906C9.11731 115.906 8.65046 115.439 8.65046 114.863V112.256H6.04373C5.46784 112.256 5.00098 111.789 5.00098 111.213Z" fill="#488BF8"/>
</g>
</svg>
