<svg width="60" height="60" viewBox="0 0 60 60" fill="none" xmlns="http://www.w3.org/2000/svg">
<path d="M41.2971 41.2525C41.7346 40.9125 42.1321 40.515 42.9246 39.7225L52.8171 29.8275C53.0571 29.59 52.9471 29.1775 52.6296 29.065C51.0804 28.5281 49.6745 27.6438 48.5196 26.48C47.3558 25.3251 46.4715 23.9192 45.9346 22.37C45.8221 22.0525 45.4096 21.9425 45.1721 22.1825L35.2746 32.075C34.4821 32.8675 34.0846 33.265 33.7446 33.7025C33.3396 34.2208 32.9963 34.7758 32.7146 35.3675C32.4771 35.8675 32.2996 36.4025 31.9446 37.4675L31.4846 38.8425L30.7546 41.03L30.0721 43.08C29.987 43.3369 29.975 43.6125 30.0374 43.8758C30.0999 44.1392 30.2343 44.38 30.4257 44.5714C30.6171 44.7628 30.8579 44.8972 31.1212 44.9597C31.3846 45.0221 31.6601 45.0101 31.9171 44.925L33.9671 44.2425L36.1546 43.5125L37.5296 43.0525C38.5946 42.6975 39.1296 42.5225 39.6296 42.2825C40.2213 41.9992 40.7788 41.6558 41.2971 41.2525ZM55.9171 26.73C56.9312 25.7156 57.5008 24.3398 57.5006 22.9054C57.5003 21.471 56.9303 20.0954 55.9158 19.0813C54.9014 18.0671 53.5256 17.4975 52.0912 17.4978C50.6568 17.498 49.2812 18.0681 48.2671 19.0825L47.9521 19.4025C47.8 19.5512 47.6868 19.735 47.6223 19.9377C47.5577 20.1403 47.544 20.3558 47.5821 20.565C47.6321 20.8325 47.7196 21.2275 47.8821 21.695C48.2071 22.6325 48.8221 23.8625 49.9796 25.02C51.1371 26.1775 52.3671 26.7925 53.3046 27.1175C53.7746 27.28 54.1671 27.3675 54.4346 27.4175C54.6438 27.4535 54.8586 27.4386 55.061 27.3743C55.2633 27.3099 55.4471 27.1978 55.5971 27.0475L55.9171 26.73Z" fill="#111111"/>
<path fill-rule="evenodd" clip-rule="evenodd" d="M10.43 7.93C7.5 10.8575 7.5 15.5725 7.5 25V35C7.5 44.4275 7.5 49.1425 10.43 52.07C13.36 54.9975 18.0725 55 27.5 55H32.5C41.9275 55 46.6425 55 49.57 52.07C52.4525 49.19 52.5 44.58 52.5 35.45L45.455 42.495C44.78 43.17 44.2275 43.7225 43.605 44.21C42.8748 44.7819 42.0833 45.2707 41.245 45.6675C40.4778 46.0127 39.6895 46.3091 38.885 46.555L33.105 48.4825C32.1875 48.7885 31.2028 48.8329 30.2615 48.6107C29.3201 48.3886 28.4592 47.9087 27.7753 47.2247C27.0913 46.5408 26.6114 45.6799 26.3893 44.7385C26.1671 43.7972 26.2115 42.8125 26.5175 41.895L27.2025 39.845L28.39 36.28L28.4425 36.115C28.745 35.21 28.9925 34.47 29.3325 33.755C29.7325 32.915 30.2183 32.1292 30.79 31.3975C31.2775 30.7725 31.83 30.2225 32.505 29.5475L42.52 19.53L45.3 16.75L45.6175 16.4325C46.467 15.5804 47.4767 14.9047 48.5883 14.4443C49.7 13.984 50.8918 13.748 52.095 13.75C51.7175 11.175 50.985 9.3425 49.57 7.93C46.6425 5 41.9275 5 32.5 5H27.5C18.0725 5 13.3575 5 10.43 7.93ZM18.125 22.5C18.125 22.0027 18.3225 21.5258 18.6742 21.1742C19.0258 20.8225 19.5027 20.625 20 20.625H36.25C36.7473 20.625 37.2242 20.8225 37.5758 21.1742C37.9275 21.5258 38.125 22.0027 38.125 22.5C38.125 22.9973 37.9275 23.4742 37.5758 23.8258C37.2242 24.1775 36.7473 24.375 36.25 24.375H20C19.5027 24.375 19.0258 24.1775 18.6742 23.8258C18.3225 23.4742 18.125 22.9973 18.125 22.5ZM18.125 32.5C18.125 32.0027 18.3225 31.5258 18.6742 31.1742C19.0258 30.8225 19.5027 30.625 20 30.625H26.25C26.7473 30.625 27.2242 30.8225 27.5758 31.1742C27.9275 31.5258 28.125 32.0027 28.125 32.5C28.125 32.9973 27.9275 33.4742 27.5758 33.8258C27.2242 34.1775 26.7473 34.375 26.25 34.375H20C19.5027 34.375 19.0258 34.1775 18.6742 33.8258C18.3225 33.4742 18.125 32.9973 18.125 32.5ZM18.125 42.5C18.125 42.0027 18.3225 41.5258 18.6742 41.1742C19.0258 40.8225 19.5027 40.625 20 40.625H23.75C24.2473 40.625 24.7242 40.8225 25.0758 41.1742C25.4275 41.5258 25.625 42.0027 25.625 42.5C25.625 42.9973 25.4275 43.4742 25.0758 43.8258C24.7242 44.1775 24.2473 44.375 23.75 44.375H20C19.5027 44.375 19.0258 44.1775 18.6742 43.8258C18.3225 43.4742 18.125 42.9973 18.125 42.5Z" fill="#111111"/>
</svg>
