<svg width="60" height="60" viewBox="0 0 60 60" fill="none" xmlns="http://www.w3.org/2000/svg">
<g clip-path="url(#clip0_60_334)">
<path fill-rule="evenodd" clip-rule="evenodd" d="M0.197266 6.6C0.197266 3.06 3.06441 0.192856 6.60012 0.192856H53.4087C56.9401 0.192856 59.8073 3.06 59.8073 6.59143V25.0757H0.197266V6.6ZM0.197266 30.4371V53.4043C0.197266 56.9357 3.06441 59.8029 6.59584 59.8029H53.4044C56.9358 59.8029 59.803 56.9357 59.803 53.4043V30.4286H0.197266V30.4371ZM27.0601 15.2057V11.01C27.0601 9.87336 26.6086 8.78327 25.8049 7.97954C25.0011 7.17581 23.9111 6.72428 22.7744 6.72428H11.2716C10.1349 6.72428 9.04482 7.17581 8.24109 7.97954C7.43737 8.78327 6.98584 9.87336 6.98584 11.01V15.2057C6.98584 16.3424 7.43737 17.4324 8.24109 18.2362C9.04482 19.0399 10.1349 19.4914 11.2716 19.4914H22.7787C23.9153 19.4914 25.0054 19.0399 25.8092 18.2362C26.6129 17.4324 27.0601 16.3424 27.0601 15.2057ZM53.0187 11.01V15.2057C53.0187 16.3424 52.5672 17.4324 51.7634 18.2362C50.9597 19.0399 49.8696 19.4914 48.733 19.4914H37.2258C36.0892 19.4914 34.9991 19.0399 34.1954 18.2362C33.3917 17.4324 32.9401 16.3424 32.9401 15.2057V11.01C32.9401 9.87336 33.3917 8.78327 34.1954 7.97954C34.9991 7.17581 36.0892 6.72428 37.2258 6.72428H48.733C49.8696 6.72428 50.9597 7.17581 51.7634 7.97954C52.5672 8.78327 53.0187 9.87336 53.0187 11.01Z" fill="#111111"/>
</g>
<defs>
<clipPath id="clip0_60_334">
<rect width="60" height="60" fill="white"/>
</clipPath>
</defs>
</svg>
