<svg width="60" height="60" viewBox="0 0 60 60" fill="none" xmlns="http://www.w3.org/2000/svg">
<path d="M48.375 9.375C42.375 4.875 43.125 0 43.125 0H7.5V46.875C7.5 54 15.375 60 22.5 60H52.5V11.25C52.5 11.25 49.5 10.5 48.375 9.375ZM26.25 23.625C22.875 22.5 17.625 20.625 17.625 16.5C18 13.5 22.5 11.25 22.5 10.5V7.5H26.25V10.125C30 10.5 33 11.625 33.375 11.625L32.25 15C32.25 15 29.625 13.875 26.625 13.875C24 13.875 22.5 15 22.125 16.875C22.125 18 24 19.125 27 20.25C32.625 22.125 34.125 24.375 34.125 27.375C34.125 30 33.75 33.375 26.25 34.125V37.5H22.5V34.5C22.5 34.125 17.25 32.625 16.875 32.625L18.75 29.25C18.75 29.25 22.875 31.125 26.25 30.75C29.625 30.375 31.125 28.5 31.125 27C31.5 25.875 29.625 24.75 26.25 23.625ZM48.75 56.25H22.5C18.75 56.25 15.75 54 15 51.375C14.625 50.25 15 48.75 16.5 48.75H41.25V10.125C45 12.375 48.75 14.25 48.75 15V56.25Z" fill="#111111"/>
</svg>
