<svg width="60" height="60" viewBox="0 0 60 60" fill="none" xmlns="http://www.w3.org/2000/svg">
<path d="M30 5.625C28.0109 5.625 26.1032 6.41518 24.6967 7.8217C23.2902 9.22822 22.5 11.1359 22.5 13.125V14.4038C13.7625 17.4938 7.5 25.83 7.5 35.625C7.5 36.1223 7.69754 36.5992 8.04918 36.9508C8.40081 37.3025 8.87772 37.5 9.375 37.5H50.625C51.1223 37.5 51.5992 37.3025 51.9508 36.9508C52.3025 36.5992 52.5 36.1223 52.5 35.625C52.5017 30.9708 51.0599 26.4305 48.3735 22.6299C45.687 18.8292 41.8881 15.9552 37.5 14.4038V13.125C37.5 11.1359 36.7098 9.22822 35.3033 7.8217C33.8968 6.41518 31.9891 5.625 30 5.625ZM28.125 22.5C28.125 22.0027 28.3225 21.5258 28.6742 21.1742C29.0258 20.8225 29.5027 20.625 30 20.625C35.1 20.625 39.6 23.1713 42.3112 27.0525C42.4581 27.2541 42.5633 27.483 42.6205 27.7258C42.6778 27.9686 42.6861 28.2204 42.6448 28.4664C42.6036 28.7124 42.5137 28.9477 42.3803 29.1585C42.247 29.3694 42.0729 29.5515 41.8684 29.6942C41.6638 29.8369 41.4328 29.9374 41.1889 29.9897C40.945 30.042 40.6931 30.0451 40.4479 29.9988C40.2028 29.9526 39.9694 29.8579 39.7613 29.7203C39.5533 29.5827 39.3748 29.405 39.2363 29.1975C38.1997 27.7085 36.8184 26.4922 35.2101 25.6525C33.6018 24.8128 31.8143 24.3745 30 24.375C29.5027 24.375 29.0258 24.1775 28.6742 23.8258C28.3225 23.4742 28.125 22.9973 28.125 22.5ZM9.375 41.25C7.88316 41.25 6.45242 41.8426 5.39752 42.8975C4.34263 43.9524 3.75 45.3832 3.75 46.875C3.75 48.3668 4.34263 49.7976 5.39752 50.8525C6.45242 51.9074 7.88316 52.5 9.375 52.5H50.625C52.1168 52.5 53.5476 51.9074 54.6025 50.8525C55.6574 49.7976 56.25 48.3668 56.25 46.875C56.25 45.3832 55.6574 43.9524 54.6025 42.8975C53.5476 41.8426 52.1168 41.25 50.625 41.25H9.375Z" fill="#111111"/>
</svg>
