<svg width="60" height="60" viewBox="0 0 60 60" fill="none" xmlns="http://www.w3.org/2000/svg">
<path d="M22.0325 29.03C23.175 28.08 24.3275 28.08 25.4975 29.0575L25.7675 29.3025L38.2325 41.7675L38.4675 41.975C38.9485 42.3479 39.5491 42.5324 40.1565 42.4941C40.7639 42.4558 41.3365 42.1972 41.7668 41.7668C42.1972 41.3365 42.4558 40.7639 42.4941 40.1565C42.5324 39.5491 42.3479 38.9485 41.975 38.4675L41.7675 38.2325L38.5375 35L39.2675 34.2675L39.5325 34.03C40.675 33.08 41.8275 33.08 42.9975 34.0575L43.2675 34.3025L54.9525 45.99C54.7158 48.3707 53.6335 50.5876 51.9019 52.2385C50.1703 53.8893 47.9043 54.8647 45.515 54.9875L45 55H15C12.5198 54.9998 10.1281 54.078 8.28939 52.4135C6.45069 50.7489 5.29616 48.4605 5.05 45.9925L21.7675 29.2675L22.0325 29.03ZM45 5C47.5656 5 50.0331 5.98609 51.892 7.75431C53.751 9.52253 54.8592 11.9376 54.9875 14.5L55 15V38.9625L46.7675 30.7325L46.3925 30.39C43.2525 27.6525 39.2675 27.6475 36.1525 30.3475L35.7675 30.6975L35 31.4625L29.2675 25.7325L28.8925 25.39C25.7525 22.6525 21.7675 22.6475 18.6525 25.3475L18.2675 25.6975L5 38.9625V15C5 12.4344 5.98609 9.96693 7.75431 8.10797C9.52253 6.24901 11.9376 5.14078 14.5 5.0125L15 5H45ZM37.525 17.5L37.2075 17.5175C36.5999 17.5898 36.0399 17.8824 35.6335 18.3399C35.2272 18.7974 35.0028 19.3881 35.0028 20C35.0028 20.6119 35.2272 21.2026 35.6335 21.6601C36.0399 22.1176 36.5999 22.4102 37.2075 22.4825L37.5 22.5L37.8175 22.4825C38.4251 22.4102 38.9851 22.1176 39.3915 21.6601C39.7978 21.2026 40.0222 20.6119 40.0222 20C40.0222 19.3881 39.7978 18.7974 39.3915 18.3399C38.9851 17.8824 38.4251 17.5898 37.8175 17.5175L37.525 17.5Z" fill="#111111"/>
</svg>
